# xmcd
#
# Track frame offsets: 
#        150
#        18922
#        38022
#        55462
#        72010
#        95160
#        114492
#        140327
#        155095
#        178255
#        194085
#        217110
#        236405
#        251620
#
# Disc length: 3638 seconds
#
# Revision: 0
# Processed by: cddbd v1.5.1PL0 Copyright (c) Steve Scherf et al.
# Submitted via: ExactAudioCopy v0.95a5
#
DISCID=d00e340e
DTITLE=Sky High - Soul Survivor
DYEAR=2004
DGENRE=Blues
TTITLE0=Soul Survivor
TTITLE1=The Moving
TTITLE2=Too Much Monkey Business
TTITLE3=Love Bomb
TTITLE4=Waiting On Time
TTITLE5=Fake Jesus
TTITLE6=One More Beer
TTITLE7=Digi Da Da
TTITLE8=Gone For Good
TTITLE9=Fat Boy Blues
TTITLE10=A Prayer For Peace
TTITLE11=Good Gosh!
TTITLE12=Come On Out
TTITLE13=Tangerine Dream
EXTD=
EXTT0=
EXTT1=
EXTT2=
EXTT3=
EXTT4=
EXTT5=
EXTT6=
EXTT7=
EXTT8=
EXTT9=
EXTT10=
EXTT11=
EXTT12=
EXTT13=
PLAYORDER=
